<svg id="visual" viewBox="0 0 900 600" width="900" height="600" xmlns="http://www.w3.org/2000/svg" xmlns:xlink="http://www.w3.org/1999/xlink" version="1.1"><rect x="0" y="0" width="900" height="600" fill="#1f303f"></rect><path d="M0 408L21.5 414.2C43 420.3 86 432.7 128.8 432.8C171.7 433 214.3 421 257.2 410.7C300 400.3 343 391.7 385.8 388.7C428.7 385.7 471.3 388.3 514.2 399C557 409.7 600 428.3 642.8 434.3C685.7 440.3 728.3 433.7 771.2 428.8C814 424 857 421 878.5 419.5L900 418L900 601L878.5 601C857 601 814 601 771.2 601C728.3 601 685.7 601 642.8 601C600 601 557 601 514.2 601C471.3 601 428.7 601 385.8 601C343 601 300 601 257.2 601C214.3 601 171.7 601 128.8 601C86 601 43 601 21.5 601L0 601Z" fill="#fa7268"></path><path d="M0 412L21.5 420.2C43 428.3 86 444.7 128.8 454.8C171.7 465 214.3 469 257.2 463.8C300 458.7 343 444.3 385.8 431.7C428.7 419 471.3 408 514.2 410.3C557 412.7 600 428.3 642.8 441.3C685.7 454.3 728.3 464.7 771.2 458.2C814 451.7 857 428.3 878.5 416.7L900 405L900 601L878.5 601C857 601 814 601 771.2 601C728.3 601 685.7 601 642.8 601C600 601 557 601 514.2 601C471.3 601 428.7 601 385.8 601C343 601 300 601 257.2 601C214.3 601 171.7 601 128.8 601C86 601 43 601 21.5 601L0 601Z" fill="#ef5f67"></path><path d="M0 491L21.5 491.5C43 492 86 493 128.8 488.5C171.7 484 214.3 474 257.2 473.3C300 472.7 343 481.3 385.8 483.2C428.7 485 471.3 480 514.2 475.8C557 471.7 600 468.3 642.8 471.7C685.7 475 728.3 485 771.2 485.3C814 485.7 857 476.3 878.5 471.7L900 467L900 601L878.5 601C857 601 814 601 771.2 601C728.3 601 685.7 601 642.8 601C600 601 557 601 514.2 601C471.3 601 428.7 601 385.8 601C343 601 300 601 257.2 601C214.3 601 171.7 601 128.8 601C86 601 43 601 21.5 601L0 601Z" fill="#e34c67"></path><path d="M0 490L21.5 496.5C43 503 86 516 128.8 522.2C171.7 528.3 214.3 527.7 257.2 522.2C300 516.7 343 506.3 385.8 501.3C428.7 496.3 471.3 496.7 514.2 504.2C557 511.7 600 526.3 642.8 527.3C685.7 528.3 728.3 515.7 771.2 511.2C814 506.7 857 510.3 878.5 512.2L900 514L900 601L878.5 601C857 601 814 601 771.2 601C728.3 601 685.7 601 642.8 601C600 601 557 601 514.2 601C471.3 601 428.7 601 385.8 601C343 601 300 601 257.2 601C214.3 601 171.7 601 128.8 601C86 601 43 601 21.5 601L0 601Z" fill="#d53867"></path><path d="M0 542L21.5 544.3C43 546.7 86 551.3 128.8 555.5C171.7 559.7 214.3 563.3 257.2 564.7C300 566 343 565 385.8 562C428.7 559 471.3 554 514.2 553C557 552 600 555 642.8 556C685.7 557 728.3 556 771.2 556.8C814 557.7 857 560.3 878.5 561.7L900 563L900 601L878.5 601C857 601 814 601 771.2 601C728.3 601 685.7 601 642.8 601C600 601 557 601 514.2 601C471.3 601 428.7 601 385.8 601C343 601 300 601 257.2 601C214.3 601 171.7 601 128.8 601C86 601 43 601 21.5 601L0 601Z" fill="#c62368"></path></svg>