<?xml version="1.0" encoding="utf-8"?>
<!-- Generator: Adobe Illustrator 28.2.0, SVG Export Plug-In . SVG Version: 6.00 Build 0)  -->
<svg version="1.1" id="Layer_1" xmlns="http://www.w3.org/2000/svg" xmlns:xlink="http://www.w3.org/1999/xlink" x="0px" y="0px"
	 viewBox="0 0 927.4 334.8" style="enable-background:new 0 0 927.4 334.8;" xml:space="preserve">
<style type="text/css">
	.st0{fill:#0F74B9;}
</style>
<path d="M182.6,125.4c-1.6-11.9-10.9-18.1-23.7-18.1c-19.8,0-27.4,17.5-27.4,34.9s7.6,35,27.4,35c14.3,0,22.6-8.3,23.7-21.8h30.7
	c-1.6,30.4-23.9,48.2-53.8,48.2c-35.6,0-58.7-27.2-58.7-61.4s23.1-61.3,58.7-61.3c25.4,0,52.9,16.2,53.8,44.5L182.6,125.4z"/>
<path d="M267.7,157.3h26.7l-13-41.2h-0.3L267.7,157.3z M265.7,83.4h31.2l44,117.7h-32l-7.3-21.1h-41l-7.4,21.1h-31.4L265.7,83.4z"/>
<polygon points="353.9,83.4 384.6,83.4 384.6,174.7 439.5,174.7 439.5,201.1 353.9,201.1 "/>
<rect x="458.8" y="83.4" width="30.7" height="117.7"/>
<path d="M548.8,157.3h26.7l-13-41.2h-0.3L548.8,157.3z M546.8,83.4H578l44,117.7h-32l-7.3-21.1h-41l-7.4,21.1h-31.5L546.8,83.4z"/>
<polygon points="634.8,83.4 666.2,83.4 707.2,155.9 707.5,155.9 707.5,83.4 736.3,83.4 736.3,201.1 704.8,201.1 663.9,127.7 
	663.6,127.7 663.6,201.1 634.8,201.1 "/>
<path class="st0" d="M469.7,0c-158.9,0-308,15-436.5,41.2L0,55.2c108.7-17.1,229-26.6,355.6-26.6c35.5,0,70.6,0.7,105,2.2l14.1-18.2
	l14.3,19.6c120,6.5,232,21.6,330.8,43.5l107.5-30C794.2,16.7,637.5,0,469.7,0"/>
<path d="M809,187c0.5,0,1-0.1,1.5-0.4c0.4-0.4,0.6-0.9,0.5-1.5c0.1-0.5-0.1-1.1-0.5-1.4c-0.4-0.3-1-0.5-1.5-0.4h-3.2v3.8L809,187z
	 M810,181c1,0,2,0.3,2.8,1c0.7,0.7,1.2,1.6,1.1,2.6c0.1,1.5-0.7,2.8-2.1,3.4l0,0c0.4,0.1,0.8,0.4,1.1,0.7c0.3,0.3,0.5,0.7,0.6,1.1
	c0.2,0.7,0.3,1.4,0.3,2c0,0.9,0.1,1.7,0.5,2.5h-2.9c-0.2-0.8-0.4-1.5-0.4-2.3c0-0.8-0.2-1.6-0.7-2.4c-0.4-0.4-1-0.6-1.6-0.6h-3v5.3
	h-2.9V181L810,181z"/>
<path d="M808,175.3c-7.1,0-12.8,5.7-12.8,12.8s5.7,12.8,12.8,12.8c7.1,0,12.8-5.7,12.8-12.8c0,0,0,0,0,0
	C820.8,181,815.1,175.3,808,175.3 M808,177.7c5.7,0,10.4,4.6,10.4,10.3c0,5.7-4.6,10.4-10.3,10.4c-5.7,0-10.4-4.6-10.4-10.3
	c0,0,0,0,0,0C797.7,182.3,802.4,177.7,808,177.7"/>
<path d="M75.4,306.5c-0.5,4.9-2.3,8.7-5.4,11.5s-7.3,4.1-12.6,4.1c-3.4,0.1-6.7-0.8-9.7-2.6c-2.8-1.8-5.1-4.3-6.4-7.4
	c-1.6-3.5-2.4-7.3-2.4-11.1v-4.3c-0.1-3.9,0.7-7.8,2.3-11.4c1.4-3.1,3.7-5.8,6.6-7.6c3-1.8,6.4-2.7,9.9-2.7c5.1,0,9.1,1.4,12.2,4.1
	s4.9,6.6,5.4,11.6h-7.9c-0.4-3.3-1.3-5.7-2.9-7.1s-3.8-2.2-6.8-2.2c-3.1-0.2-6.1,1.3-8,3.8c-1.8,2.5-2.8,6.2-2.8,11.1v4.1
	c0,5,0.9,8.7,2.7,11.3c1.7,2.6,4.7,4.1,7.8,3.9c3.1,0,5.5-0.7,7.1-2.1c1.6-1.4,2.6-3.8,3-7L75.4,306.5z"/>
<path d="M84.9,304c0-3.1,0.6-6.2,2-9c1.2-2.6,3.2-4.7,5.6-6.2c2.5-1.5,5.4-2.2,8.2-2.2c4.2-0.2,8.3,1.4,11.2,4.4
	c2.9,3,4.4,6.9,4.6,11.8v1.8c0.1,3.1-0.6,6.2-1.9,9c-1.2,2.5-3.1,4.7-5.5,6.1c-2.5,1.5-5.4,2.2-8.3,2.2c-4.4,0.2-8.6-1.6-11.6-4.8
	c-2.9-3.2-4.3-7.5-4.3-12.8L84.9,304z M92.6,304.7c0,3.5,0.7,6.2,2.2,8.2c2.5,3.3,7.3,4,10.6,1.5c0.6-0.4,1.1-0.9,1.5-1.5
	c1.4-2,2.1-5,2.1-8.9c0.2-2.9-0.6-5.8-2.2-8.2c-2.4-3.3-7.1-4-10.4-1.6c-0.6,0.4-1.1,1-1.6,1.5C93.3,297.8,92.6,300.7,92.6,304.7
	L92.6,304.7z"/>
<path d="M134.7,287.3l0.2,3.9c2.4-3,6.1-4.7,9.9-4.6c7.1,0,10.7,4.1,10.8,12.2v22.5H148v-22.1c0.1-1.7-0.4-3.4-1.4-4.8
	c-0.9-1-2.5-1.6-4.6-1.6c-2.9-0.1-5.6,1.5-6.9,4.2v24.3h-7.7v-34.1H134.7z"/>
<path d="M170.6,321.4V293h-5.2v-5.7h5.2v-3.1c0-3.8,1-6.7,3.1-8.8s5-3.1,8.8-3.1c1.4,0,2.9,0.2,4.3,0.6l-0.2,6
	c-1-0.2-1.9-0.3-2.9-0.2c-3.7,0-5.5,1.9-5.5,5.6v3h6.9v5.7h-6.9v28.4H170.6z"/>
<path d="M195.3,278.5c0-1.1,0.4-2.1,1.1-2.9c0.9-0.8,2.1-1.2,3.2-1.1c1.2-0.1,2.3,0.3,3.2,1.2c0.8,0.8,1.2,1.8,1.1,2.9
	c0,1.1-0.4,2.1-1.1,2.9c-0.9,0.8-2,1.2-3.2,1.1c-1.2,0.1-2.3-0.3-3.2-1.1C195.8,280.6,195.3,279.5,195.3,278.5z M203.5,321.4h-7.6
	v-34.1h7.6V321.4z"/>
<path d="M214.9,304.1c0-5.2,1.2-9.5,3.6-12.6c2.3-3.1,5.9-4.9,9.8-4.8c3.3-0.1,6.6,1.3,8.8,3.8V273h7.6v48.4h-6.9l-0.4-3.5
	c-2.2,2.7-5.6,4.3-9.2,4.2c-3.8,0.1-7.4-1.7-9.7-4.8C216.1,314,214.9,309.6,214.9,304.1z M222.5,304.8c0,3.5,0.7,6.2,2,8.1
	c1.3,1.9,3.4,3,5.7,2.9c2.9,0.1,5.6-1.5,6.9-4.2V297c-1.2-2.6-3.9-4.2-6.8-4.1c-2.3-0.1-4.5,1-5.7,2.9
	C223.2,297.9,222.5,300.8,222.5,304.8L222.5,304.8z"/>
<path d="M272.2,322c-4.4,0.2-8.7-1.5-11.8-4.6c-3-3.1-4.5-7.1-4.5-12.2v-0.9c0-3.2,0.6-6.3,2-9.1c1.2-2.6,3.1-4.7,5.5-6.2
	c2.4-1.5,5.1-2.3,7.9-2.2c4.7,0,8.3,1.5,10.8,4.4c2.5,3,3.8,7.2,3.8,12.6v3.1h-22.3c0.1,2.5,1.1,4.9,2.8,6.7
	c1.6,1.6,3.9,2.5,6.2,2.5c3.4,0.1,6.6-1.5,8.6-4.2l4.1,3.9c-1.4,2-3.3,3.7-5.5,4.7C277.5,321.5,274.9,322.1,272.2,322z M271.3,292.8
	c-1.9-0.1-3.8,0.7-5.1,2.2c-1.4,1.8-2.3,3.9-2.5,6.1h14.6v-0.6c0-2.1-0.7-4.2-2-5.8C275,293.4,273.2,292.7,271.3,292.8L271.3,292.8z
	"/>
<path d="M303.5,287.3l0.2,3.9c2.4-3,6.1-4.7,9.9-4.6c7.1,0,10.7,4.1,10.8,12.2v22.5h-7.7v-22.1c0.1-1.7-0.4-3.4-1.4-4.8
	c-0.9-1-2.5-1.6-4.6-1.6c-2.9-0.1-5.6,1.5-6.9,4.2v24.3h-7.7v-34.1H303.5z"/>
<path d="M349.5,315.9c1.7,0.1,3.4-0.5,4.8-1.7c1.2-1,1.9-2.5,2-4.1h7.2c-0.1,2.1-0.8,4.2-2,5.9c-1.3,1.9-3,3.4-5,4.4
	c-2.1,1.1-4.5,1.6-6.9,1.6c-4.8,0-8.5-1.5-11.3-4.6c-2.8-3.1-4.2-7.3-4.2-12.8v-0.8c0-5.2,1.4-9.3,4.2-12.5
	c2.8-3.1,6.6-4.7,11.3-4.7c3.6-0.2,7.2,1.1,9.9,3.5c2.6,2.4,4,5.8,4,9.3h-7.2c0-1.8-0.7-3.5-2-4.8c-1.3-1.3-3-1.9-4.8-1.9
	c-2.2-0.1-4.4,0.9-5.7,2.7c-1.3,1.8-2,4.5-2,8.2v1.2c0,3.7,0.7,6.5,2,8.3C345,315,347.2,316,349.5,315.9z"/>
<path d="M388.7,322c-4.4,0.2-8.7-1.5-11.8-4.6c-3-3.1-4.5-7.1-4.5-12.2v-0.9c0-3.2,0.6-6.3,2-9.1c1.2-2.6,3.1-4.7,5.5-6.2
	c2.4-1.5,5.1-2.3,7.9-2.2c4.7,0,8.3,1.5,10.8,4.4c2.5,3,3.8,7.2,3.8,12.6v3.1h-22.3c0.1,2.5,1.1,4.9,2.8,6.7
	c1.6,1.6,3.9,2.5,6.2,2.5c3.4,0.1,6.6-1.5,8.6-4.2l4.1,3.9c-1.4,2-3.2,3.7-5.5,4.7C394,321.5,391.4,322.1,388.7,322z M387.8,292.8
	c-1.9-0.1-3.8,0.7-5.1,2.2c-1.4,1.8-2.3,3.9-2.5,6.1h14.6v-0.6c0-2.1-0.7-4.2-2.1-5.8C391.5,293.4,389.7,292.7,387.8,292.8
	L387.8,292.8z"/>
<path d="M416.4,313.3c1.2-0.1,2.4,0.4,3.3,1.2c0.8,0.8,1.2,1.9,1.2,3c0,1.1-0.4,2.2-1.2,3c-1.9,1.6-4.6,1.6-6.5,0
	c-0.8-0.8-1.2-1.9-1.2-3c0-1.1,0.4-2.2,1.2-3C413.9,313.7,415.1,313.3,416.4,313.3z"/>
<path d="M482.2,300.9h-18.8V315h22v6.4h-30v-45.9h29.8v6.4h-21.8v12.7h18.8L482.2,300.9z"/>
<path d="M502.8,287.3l0.2,3.9c2.4-3,6.1-4.7,9.9-4.6c7.1,0,10.7,4.1,10.8,12.2v22.5h-7.7v-22.1c0.1-1.7-0.4-3.4-1.4-4.8
	c-0.9-1-2.5-1.6-4.6-1.6c-2.9-0.1-5.6,1.5-6.9,4.2v24.3h-7.7v-34.1H502.8z"/>
<path d="M533.4,304.1c0-5.3,1.2-9.5,3.7-12.7c2.3-3.1,6-4.9,9.9-4.7c3.5-0.2,6.9,1.3,9.2,4.1l0.3-3.4h6.9v33c0,4.5-1.4,8-4.2,10.6
	c-2.8,2.6-6.5,3.9-11.3,3.9c-2.5,0-5-0.5-7.3-1.5c-2.1-0.9-4-2.3-5.4-4.1l3.6-4.6c2.1,2.7,5.3,4.2,8.7,4.2c2.2,0.1,4.3-0.6,6-2.1
	c1.6-1.6,2.4-3.8,2.2-6.1v-2.3c-2.2,2.5-5.5,3.8-8.8,3.7c-3.8,0.1-7.5-1.7-9.8-4.8C534.7,314.1,533.4,309.7,533.4,304.1z M541,304.8
	c0,3.4,0.7,6.1,2.1,8.1c1.3,1.9,3.5,3,5.8,2.9c2.9,0.1,5.6-1.4,6.9-4v-15c-1.3-2.5-4-4-6.8-3.9c-2.3-0.1-4.6,1-5.9,3
	C541.8,297.9,541.1,300.9,541,304.8L541,304.8z"/>
<path d="M575.9,278.5c0-1.1,0.4-2.1,1.1-2.9c0.9-0.8,2-1.2,3.2-1.2c1.2-0.1,2.3,0.3,3.2,1.2c0.8,0.8,1.2,1.8,1.1,2.9
	c0,1.1-0.4,2.1-1.1,2.9c-0.9,0.8-2,1.2-3.2,1.1c-1.2,0.1-2.3-0.3-3.2-1.1C576.2,280.6,575.8,279.5,575.9,278.5z M584,321.4h-7.7
	v-34.1h7.7V321.4z"/>
<path d="M603.9,287.3l0.2,3.9c2.4-3,6.1-4.7,9.9-4.6c7.1,0,10.7,4.1,10.8,12.2v22.5h-7.7v-22.1c0.1-1.7-0.4-3.4-1.4-4.8
	c-0.9-1-2.5-1.6-4.6-1.6c-2.9-0.1-5.6,1.5-6.9,4.2v24.3h-7.6v-34.1H603.9z"/>
<path d="M652.2,322c-4.4,0.2-8.7-1.5-11.8-4.6c-3-3.1-4.5-7.1-4.5-12.2v-0.9c0-3.2,0.6-6.3,2-9.1c1.2-2.6,3.1-4.7,5.5-6.2
	c2.4-1.5,5.1-2.3,7.9-2.2c4.7,0,8.3,1.5,10.8,4.4c2.5,3,3.8,7.2,3.8,12.6v3.1h-22.3c0.1,2.5,1.1,4.9,2.8,6.7
	c1.6,1.6,3.9,2.5,6.2,2.5c3.4,0.1,6.6-1.5,8.6-4.2l4.1,3.9c-1.4,2-3.3,3.7-5.5,4.7C657.5,321.5,654.9,322.1,652.2,322z M651.3,292.8
	c-1.9-0.1-3.8,0.7-5.1,2.2c-1.4,1.8-2.3,3.9-2.5,6.1h14.6v-0.6c0-2.1-0.7-4.2-2-5.8C655,293.4,653.2,292.7,651.3,292.8L651.3,292.8z
	"/>
<path d="M691.3,322c-4.4,0.2-8.7-1.5-11.8-4.6c-3-3.1-4.5-7.1-4.5-12.2v-0.9c0-3.2,0.6-6.3,2-9.1c1.2-2.6,3.1-4.7,5.5-6.2
	c2.4-1.5,5.1-2.3,7.9-2.2c4.7,0,8.2,1.5,10.8,4.4c2.5,3,3.8,7.1,3.8,12.6v3.1h-22.3c0.1,2.5,1.1,4.9,2.8,6.7
	c1.6,1.6,3.9,2.5,6.2,2.5c3.4,0.1,6.6-1.5,8.6-4.2l4.1,3.9c-1.4,2-3.2,3.7-5.5,4.7C696.6,321.5,694,322.1,691.3,322z M690.4,292.8
	c-1.9-0.1-3.8,0.7-5.1,2.2c-1.4,1.8-2.3,3.9-2.5,6.1h14.6v-0.6c0-2.1-0.7-4.2-2-5.8C694.2,293.4,692.3,292.7,690.4,292.8
	L690.4,292.8z"/>
<path d="M733.3,294.3c-1-0.2-2.1-0.2-3.1-0.2c-3.5,0-5.9,1.4-7.1,4v23.4h-7.7v-34.1h7.3l0.2,3.8c1.5-2.8,4.5-4.5,7.7-4.4
	c0.9,0,1.8,0.1,2.7,0.4L733.3,294.3z"/>
<path d="M757.1,322c-4.4,0.2-8.7-1.5-11.8-4.6c-3-3.1-4.5-7.1-4.5-12.2v-0.9c0-3.2,0.6-6.3,2-9.1c1.2-2.6,3.1-4.7,5.5-6.2
	c2.4-1.5,5.1-2.3,7.9-2.2c4.7,0,8.2,1.5,10.8,4.4c2.5,3,3.8,7.1,3.8,12.6v3.1h-22.3c0.1,2.5,1.1,4.9,2.8,6.7
	c1.6,1.6,3.9,2.5,6.2,2.5c3.4,0.1,6.6-1.5,8.6-4.2l4.1,3.9c-1.4,2-3.2,3.7-5.5,4.7C762.4,321.5,759.7,322.1,757.1,322z M756.1,292.8
	c-1.9-0.1-3.8,0.7-5.1,2.2c-1.4,1.8-2.3,3.9-2.5,6.1h14.6v-0.6c0-2.1-0.7-4.2-2-5.8C759.8,293.4,758,292.7,756.1,292.8L756.1,292.8z
	"/>
<path d="M779.7,304.1c0-5.2,1.2-9.5,3.7-12.6c2.3-3.1,5.9-4.9,9.8-4.8c3.3-0.1,6.6,1.3,8.8,3.8V273h7.7v48.4h-6.9l-0.4-3.5
	c-2.2,2.7-5.6,4.3-9.2,4.2c-3.8,0.1-7.4-1.7-9.7-4.8C781,314,779.7,309.6,779.7,304.1z M787.4,304.8c0,3.5,0.7,6.2,2,8.1
	c1.3,1.9,3.4,3,5.7,2.9c2.9,0.1,5.6-1.5,6.9-4.2V297c-1.2-2.6-3.9-4.2-6.8-4.1c-2.3-0.1-4.5,1-5.7,2.9
	C788.1,297.9,787.4,300.8,787.4,304.8L787.4,304.8z"/>
<path d="M825.6,313.3c1.2-0.1,2.4,0.4,3.3,1.2c0.8,0.8,1.2,1.9,1.2,3c0,1.1-0.4,2.2-1.2,3c-1.9,1.6-4.6,1.6-6.5,0
	c-0.8-0.8-1.2-1.9-1.2-3c0-1.1,0.4-2.2,1.2-3C823.2,313.7,824.4,313.3,825.6,313.3z"/>
</svg>
